<?xml version="1.0" encoding="UTF-8" standalone="no"?>
<!-- Created with Inkscape (http://www.inkscape.org/) -->

<svg
   xmlns:dc="http://purl.org/dc/elements/1.1/"
   xmlns:cc="http://creativecommons.org/ns#"
   xmlns:rdf="http://www.w3.org/1999/02/22-rdf-syntax-ns#"
   xmlns:svg="http://www.w3.org/2000/svg"
   xmlns="http://www.w3.org/2000/svg"
   xmlns:xlink="http://www.w3.org/1999/xlink"
   xmlns:sodipodi="http://sodipodi.sourceforge.net/DTD/sodipodi-0.dtd"
   xmlns:inkscape="http://www.inkscape.org/namespaces/inkscape"
   width="297mm"
   height="210mm"
   id="svg2985"
   version="1.1"
   inkscape:version="0.48.3.1 r9886"
   sodipodi:docname="avocado.svg">
  <defs
     id="defs2987">
    <linearGradient
       inkscape:collect="always"
       id="linearGradient4237">
      <stop
         style="stop-color:#99ff55;stop-opacity:1;"
         offset="0"
         id="stop4239" />
      <stop
         style="stop-color:#99ff55;stop-opacity:0;"
         offset="1"
         id="stop4241" />
    </linearGradient>
    <linearGradient
       id="linearGradient4099">
      <stop
         style="stop-color:#55d400;stop-opacity:1;"
         offset="0"
         id="stop4101" />
      <stop
         style="stop-color:#55d400;stop-opacity:1;"
         offset="1"
         id="stop4103" />
    </linearGradient>
    <linearGradient
       id="linearGradient3305">
      <stop
         style="stop-color:#502d16;stop-opacity:1;"
         offset="0"
         id="stop3307" />
      <stop
         style="stop-color:#381f0f;stop-opacity:1;"
         offset="1"
         id="stop3309" />
    </linearGradient>
    <radialGradient
       inkscape:collect="always"
       xlink:href="#linearGradient3305"
       id="radialGradient3311"
       cx="359.58389"
       cy="451.50613"
       fx="359.58389"
       fy="451.50613"
       r="105.95213"
       gradientTransform="matrix(0.76282524,-0.00647424,0.00280872,0.49997066,84.01607,228.12852)"
       gradientUnits="userSpaceOnUse" />
    <radialGradient
       inkscape:collect="always"
       xlink:href="#linearGradient4099"
       id="radialGradient4107"
       cx="472.43762"
       cy="428.87796"
       fx="472.43762"
       fy="428.87796"
       r="367.91046"
       gradientTransform="matrix(1,0,0,0.41028206,0,252.91703)"
       gradientUnits="userSpaceOnUse" />
    <radialGradient
       inkscape:collect="always"
       xlink:href="#linearGradient4099-9"
       id="radialGradient4107-0"
       cx="472.43762"
       cy="428.87796"
       fx="472.43762"
       fy="428.87796"
       r="367.91046"
       gradientTransform="matrix(1,0,0,0.41028206,0,252.91703)"
       gradientUnits="userSpaceOnUse" />
    <linearGradient
       id="linearGradient4099-9">
      <stop
         style="stop-color:#55d400;stop-opacity:1;"
         offset="0"
         id="stop4101-1" />
      <stop
         style="stop-color:#55d400;stop-opacity:1;"
         offset="1"
         id="stop4103-9" />
    </linearGradient>
    <radialGradient
       inkscape:collect="always"
       xlink:href="#linearGradient4099-9"
       id="radialGradient4127"
       cx="472.43762"
       cy="428.87796"
       fx="472.43762"
       fy="428.87796"
       r="367.91046"
       gradientTransform="matrix(1,0,0,0.41028206,0,252.91703)"
       gradientUnits="userSpaceOnUse" />
    <linearGradient
       id="linearGradient4129">
      <stop
         style="stop-color:#55d400;stop-opacity:1;"
         offset="0"
         id="stop4131" />
      <stop
         style="stop-color:#55d400;stop-opacity:1;"
         offset="1"
         id="stop4133" />
    </linearGradient>
    <radialGradient
       inkscape:collect="always"
       xlink:href="#linearGradient4099-9"
       id="radialGradient4135"
       cx="472.43762"
       cy="428.87796"
       fx="472.43762"
       fy="428.87796"
       r="367.91046"
       gradientTransform="matrix(1,0,0,0.41028206,0,252.91703)"
       gradientUnits="userSpaceOnUse" />
    <linearGradient
       id="linearGradient4137">
      <stop
         style="stop-color:#55d400;stop-opacity:1;"
         offset="0"
         id="stop4139" />
      <stop
         style="stop-color:#55d400;stop-opacity:1;"
         offset="1"
         id="stop4141" />
    </linearGradient>
    <radialGradient
       inkscape:collect="always"
       xlink:href="#linearGradient4237"
       id="radialGradient4243"
       cx="511.892"
       cy="412.67737"
       fx="511.892"
       fy="412.67737"
       r="367.91045"
       gradientTransform="matrix(0.61352994,-0.06886561,0.04576039,0.40772216,178.94666,289.2252)"
       gradientUnits="userSpaceOnUse" />
    <radialGradient
       inkscape:collect="always"
       xlink:href="#linearGradient4237"
       id="radialGradient4259"
       gradientUnits="userSpaceOnUse"
       gradientTransform="matrix(0.61352994,-0.06886561,0.04576039,0.40772216,178.94666,289.2252)"
       cx="511.892"
       cy="412.67737"
       fx="511.892"
       fy="412.67737"
       r="367.91045" />
    <radialGradient
       inkscape:collect="always"
       xlink:href="#linearGradient4099"
       id="radialGradient4263"
       gradientUnits="userSpaceOnUse"
       gradientTransform="matrix(1,0,0,0.41028206,0,252.91703)"
       cx="472.43762"
       cy="428.87796"
       fx="472.43762"
       fy="428.87796"
       r="367.91046" />
    <radialGradient
       inkscape:collect="always"
       xlink:href="#linearGradient4237"
       id="radialGradient4269"
       gradientUnits="userSpaceOnUse"
       gradientTransform="matrix(0.61352994,-0.06886561,0.04576039,0.40772216,178.94666,289.2252)"
       cx="511.892"
       cy="412.67737"
       fx="511.892"
       fy="412.67737"
       r="367.91045" />
    <radialGradient
       inkscape:collect="always"
       xlink:href="#linearGradient3305-0"
       id="radialGradient3311-4"
       cx="359.58389"
       cy="451.50613"
       fx="359.58389"
       fy="451.50613"
       r="105.95213"
       gradientTransform="matrix(0.76282524,-0.00647424,0.00280872,0.49997066,84.01607,228.12852)"
       gradientUnits="userSpaceOnUse" />
    <linearGradient
       id="linearGradient3305-0">
      <stop
         style="stop-color:#502d16;stop-opacity:0.76521736;"
         offset="0"
         id="stop3307-0" />
      <stop
         style="stop-color:#381f0f;stop-opacity:0.82608694;"
         offset="1"
         id="stop3309-3" />
    </linearGradient>
    <radialGradient
       r="105.95213"
       fy="449.98111"
       fx="407.0304"
       cy="449.98111"
       cx="407.0304"
       gradientTransform="matrix(0.76282524,-0.00647424,0.00280872,0.49997066,84.01607,228.12852)"
       gradientUnits="userSpaceOnUse"
       id="radialGradient4286"
       xlink:href="#linearGradient3305-0"
       inkscape:collect="always" />
  </defs>
  <sodipodi:namedview
     inkscape:document-units="mm"
     pagecolor="#ffffff"
     bordercolor="#666666"
     borderopacity="1.0"
     inkscape:pageopacity="0.0"
     inkscape:pageshadow="2"
     inkscape:zoom="0.61399264"
     inkscape:cx="291.25543"
     inkscape:cy="258.02373"
     inkscape:current-layer="layer1"
     id="namedview2989"
     showgrid="false"
     inkscape:window-width="1920"
     inkscape:window-height="1009"
     inkscape:window-x="0"
     inkscape:window-y="49"
     inkscape:window-maximized="1" />
  <metadata
     id="metadata2991">
    <rdf:RDF>
      <cc:Work
         rdf:about="">
        <dc:format>image/svg+xml</dc:format>
        <dc:type
           rdf:resource="http://purl.org/dc/dcmitype/StillImage" />
        <dc:title></dc:title>
      </cc:Work>
    </rdf:RDF>
  </metadata>
  <g
     inkscape:label="Layer 1"
     inkscape:groupmode="layer"
     id="layer1">
    <path
       style="fill:#008000"
       id="path3222"
       d="m 122.10679,191.75578 c -19.51093,15.56736 19.71373,-15.73978 24.06653,-19.02208 2.75456,-2.07711 -5.17135,4.53968 -7.6806,6.89074 -9.15083,8.57389 -17.46467,17.83965 -25.65942,27.34526 -10.81353,14.30652 -20.771493,29.51972 -27.468644,46.86481 -4.021403,10.4151 -4.59086,14.40943 -7.205363,25.44227 -6.267066,25.12947 -4.158043,52.68464 1.987191,80.87374 3.894677,16.33016 10.019455,32.75259 19.806834,48.03961 5.791822,9.04626 9.701272,13.56154 16.432872,22.08709 17.31036,20.48052 38.20554,36.21628 60.53447,49.47059 26.23414,14.05887 53.43073,22.15309 80.46329,29.42268 30.90764,8.48142 61.40712,12.13072 91.51107,13.81036 32.66085,1.18767 64.69574,-0.0679 96.71429,-1.24564 33.38829,-1.81481 65.42843,-7.38468 97.4605,-12.8103 30.01608,-5.24413 59.86438,-10.82158 88.55385,-18.97094 32.41322,-9.44551 64.62,-19.2586 96.59949,-29.53277 20.28593,-7.3499 40.89159,-14.21544 60.01457,-23.51684 10.64956,-5.17994 16.97017,-9.07464 27.13228,-14.94552 20.05169,-11.98562 38.72136,-25.71699 57.81498,-38.91399 16.39302,-10.99298 6.0652,-4.23544 -28.66658,23.08573 0,0 42.6261,-21.70854 42.6261,-21.70854 l 0,0 c -40.94146,32.42199 -25.52996,21.9064 -43.97036,34.28964 -18.78232,13.05421 -37.62304,26.03866 -57.41192,37.80062 -27.47185,15.42031 -56.70965,27.97826 -87.76091,37.65286 -32.1307,10.23521 -64.42755,20.14181 -96.94772,29.63336 -28.85647,7.85366 -58.74766,13.38026 -88.84126,18.49132 -32.18862,5.40797 -64.45056,10.82434 -98.05861,12.40963 -32.12747,1.15569 -64.30927,2.26097 -97.11922,0.87367 -30.47122,-1.89759 -61.3247,-5.85876 -92.56116,-14.58896 C 196.88239,533.43153 169.0895,524.99043 142.38715,510.39376 119.35686,496.49741 97.973615,479.85133 80.065151,458.72484 73.033136,449.87618 69.013007,445.24707 62.902807,435.85702 52.604332,420.03044 45.915452,403.00925 41.8036,386.01433 c -6.602881,-28.76112 -9.411328,-57.15286 -3.448048,-82.99427 2.322024,-10.75822 3.114903,-16.05646 6.757706,-26.24343 6.343228,-17.73852 16.196026,-33.19812 26.663675,-47.98695 23.84019,-28.58592 49.088737,-51.5267 80.467977,-73.17816 0,0 -30.13812,36.14426 -30.13812,36.14426 z"
       inkscape:connector-curvature="0" />
    <path
       style="fill:none"
       d="m 412.35251,358.36434 c -30.21325,-4.88773 -58.44321,-20.67139 -66.97432,-37.44607 -6.01038,-11.81816 -6.33741,-15.38763 -2.60996,-28.48589 13.22998,-46.49005 93.88658,-96.88717 183.28672,-114.52407 44.59396,-8.79751 109.48695,-6.22901 134.17649,5.31077 46.36818,21.67227 50.1128,53.90218 11.01921,94.84188 -51.1772,53.59391 -178.97381,93.23304 -258.89814,80.30338 z"
       id="path3117"
       inkscape:connector-curvature="0" />
    <path
       style="fill:none"
       d="m 412.35251,358.36434 c -30.21325,-4.88773 -58.44321,-20.67139 -66.97432,-37.44607 -6.01038,-11.81816 -6.33741,-15.38763 -2.60996,-28.48589 13.22998,-46.49005 93.88658,-96.88717 183.28672,-114.52407 44.59396,-8.79751 109.48695,-6.22901 134.17649,5.31077 46.36818,21.67227 50.1128,53.90218 11.01921,94.84188 -51.1772,53.59391 -178.97381,93.23304 -258.89814,80.30338 z"
       id="path3121"
       inkscape:connector-curvature="0" />
    <path
       style="fill:none"
       d="m 499.07339,296.10562 c -30.21325,-4.88773 -58.44321,-20.6714 -66.97433,-37.44607 -6.01037,-11.81816 -6.33741,-15.38763 -2.60996,-28.48589 13.22998,-46.49005 93.88659,-96.88717 183.28671,-114.52407 44.59396,-8.79751 109.48695,-6.22901 134.17649,5.31077 46.36818,21.67227 50.11281,53.90218 11.01921,94.84188 -51.1772,53.5939 -178.97379,93.23304 -258.89812,80.30338 z"
       id="path3121-6"
       inkscape:connector-curvature="0" />
    <path
       sodipodi:type="arc"
       style="fill:url(#radialGradient3311);fill-opacity:1;stroke:#000000;stroke-opacity:1"
       id="path3065"
       sodipodi:cx="375.43906"
       sodipodi:cy="451.57449"
       sodipodi:rx="105.95213"
       sodipodi:ry="52.976063"
       d="m 481.39119,451.57449 a 105.95213,52.976063 0 1 1 -211.90427,0 105.95213,52.976063 0 1 1 211.90427,0 z"
       transform="matrix(1.7338144,-0.27924485,0.24400825,1.6225688,-282.47276,-341.5208)" />
    <g
       id="g4325"
       transform="matrix(1.5345938,0,0,1.615648,-18.722696,-41.801185)">
      <path
         transform="matrix(2.7974123,-0.35280681,0.44862288,2.6198925,-916.10605,-837.69696)"
         d="m 481.39119,451.57449 c 0,29.25787 -47.43639,52.97607 -105.95213,52.97607 -58.51575,0 -105.95214,-23.7182 -105.95214,-52.97607 0,-29.25787 47.43639,-52.97606 105.95214,-52.97606 58.51574,0 105.95213,23.71819 105.95213,52.97606 z"
         sodipodi:ry="52.976063"
         sodipodi:rx="105.95213"
         sodipodi:cy="451.57449"
         sodipodi:cx="375.43906"
         id="path3065-4-5"
         style="fill:url(#radialGradient4263);fill-opacity:1"
         sodipodi:type="arc" />
      <path
         transform="matrix(2.7974123,-0.35280681,0.44862288,2.6198925,-916.12298,-837.616)"
         d="m 481.39119,451.57449 c 0,29.25787 -47.43639,52.97607 -105.95213,52.97607 -58.51575,0 -105.95214,-23.7182 -105.95214,-52.97607 0,-29.25787 47.43639,-52.97606 105.95214,-52.97606 58.51574,0 105.95213,23.71819 105.95213,52.97606 z"
         sodipodi:ry="52.976063"
         sodipodi:rx="105.95213"
         sodipodi:cy="451.57449"
         sodipodi:cx="375.43906"
         id="path3065-4-5-5"
         style="fill:url(#radialGradient4269);fill-opacity:1;stroke:#000000;stroke-opacity:0.25652173"
         sodipodi:type="arc" />
      <flowRoot
         xml:space="preserve"
         id="flowRoot4352"
         style="font-size:40px;font-style:normal;font-weight:normal;line-height:125%;letter-spacing:0px;word-spacing:0px;fill:#000000;fill-opacity:1;stroke:none;font-family:Bitstream Vera Sans"><flowRegion
           id="flowRegion4354"><rect
             id="rect4356"
             width="1009.7841"
             height="252.44603"
             x="21.172892"
             y="423.24374" /></flowRegion><flowPara
           id="flowPara4358"></flowPara></flowRoot>    </g>
    <path
       sodipodi:type="arc"
       style="fill:url(#radialGradient4286);fill-opacity:1;stroke:#000000;stroke-opacity:0.55652173"
       id="path3065-9"
       sodipodi:cx="375.43906"
       sodipodi:cy="451.57449"
       sodipodi:rx="105.95213"
       sodipodi:ry="52.976063"
       d="m 481.39119,451.57449 a 105.95213,52.976063 0 1 1 -211.90427,0 105.95213,52.976063 0 1 1 211.90427,0 z"
       transform="matrix(1.7338144,-0.27924485,0.24400825,1.6225688,-282.48555,-341.5137)"
       inkscape:transform-center-y="-35.817833"
       inkscape:transform-center-x="2.336772e-05" />
    <flowRoot
       xml:space="preserve"
       id="flowRoot4362"
       style="fill:black;stroke:none;stroke-opacity:1;stroke-width:1px;stroke-linejoin:miter;stroke-linecap:butt;fill-opacity:1;font-family:Bitstream Vera Sans;font-style:normal;font-weight:normal;font-size:40px;line-height:125%;letter-spacing:0px;word-spacing:0px"><flowRegion
         id="flowRegion4364"><rect
           id="rect4366"
           width="951.15149"
           height="242.67392"
           x="48.860519"
           y="454.18872" /></flowRegion><flowPara
         id="flowPara4368"></flowPara></flowRoot>    <text
       xml:space="preserve"
       style="font-size:192.24945068px;font-style:normal;font-variant:normal;font-weight:bold;font-stretch:normal;line-height:125%;letter-spacing:0px;word-spacing:0px;fill:#401717;fill-opacity:0.82173923;stroke:none;font-family:Droid Sans Mono;-inkscape-font-specification:Droid Sans Mono Bold"
       x="210.6881"
       y="676.96057"
       id="text4374"
       sodipodi:linespacing="125%"
       transform="matrix(0.94146,-0.02356777,-0.22026558,1.067694,0,0)"><tspan
         sodipodi:role="line"
         id="tspan4376"
         x="210.6881"
         y="676.96057"
         style="font-style:normal;font-variant:normal;font-weight:bold;font-stretch:normal;letter-spacing:31.01352501px;word-spacing:0px;fill:#401717;fill-opacity:0.82173923;font-family:Droid Sans Mono;-inkscape-font-specification:Droid Sans Mono Bold"
         dx="0">Avocado</tspan></text>
  </g>
</svg>
